<svg xmlns="http://www.w3.org/2000/svg" width="223.9" height="234.89" viewBox="0 0 223.9 234.89">
  <defs>
    <style>
      .cls-1 {
        isolation: isolate;
      }

      .cls-2 {
        fill: #f06ba8;
      }

      .cls-3 {
        mix-blend-mode: multiply;
      }

      .cls-4 {
        fill: none;
        stroke: #00aeef;
        stroke-miterlimit: 10;
        stroke-width: 3px;
      }
    </style>
  </defs>
  <g class="cls-1">
    <g id="Layer_2" data-name="Layer 2">
      <g>
        <g>
          <path class="cls-2" d="M41.72,141.15C42.77,152.22,47.51,159,56.58,159s12.09-5.25,12.09-12.69c0-9.85-4.77-14.28-18.38-19.38C25.45,117.75,18,104.83,18,85.76c0-27.45,16.37-41.6,37.26-41.6,24.7,0,37.5,16.21,38.62,41.41h-26C67,77.05,64.18,70,55.36,70c-6.77,0-10.45,4.26-10.45,11.55,0,8.43,4.45,10.89,17.79,16C89,107.85,96.34,121.49,96.34,142.16c0,25.92-14.12,43-40.57,43-24.68,0-39.21-16.88-40.32-44Z"/>
          <path class="cls-2" d="M189.12,138.68c0-21.14.29-50,.73-66.17h-.92c-3.76,29.46-10.8,74.88-17.27,110.27H149.53c-5-33.75-11.82-80.25-15.3-110.25h-1c.78,15.91,1.27,43.76,1.27,67.23v43H110V46.58h39.6c4.52,24.6,10.44,66.73,12.45,86.55h.51c2.29-21.35,9.21-58.55,14.53-86.55h38.44v136.2H189.12Z"/>
        </g>
        <g class="cls-3">
          <g>
            <path class="cls-4" d="M31.72,129.15C32.77,140.22,37.51,147,46.58,147s12.09-5.25,12.09-12.69c0-9.85-4.77-14.28-18.38-19.38C15.45,105.75,8,92.83,8,73.76c0-27.45,16.37-41.6,37.26-41.6,24.7,0,37.5,16.21,38.62,41.41h-26C57,65.05,54.18,58,45.36,58c-6.77,0-10.45,4.26-10.45,11.55,0,8.43,4.45,10.89,17.79,16C79,95.85,86.34,109.49,86.34,130.16c0,25.92-14.12,43-40.57,43-24.68,0-39.21-16.88-40.32-44Z"/>
            <path class="cls-4" d="M179.12,126.68c0-21.14.29-50,.73-66.17h-.92c-3.76,29.46-10.8,74.88-17.27,110.27H139.53c-5-33.75-11.82-80.25-15.3-110.25h-1c.78,15.91,1.27,43.76,1.27,67.23v43H100V34.58h39.6c4.52,24.6,10.44,66.73,12.45,86.55h.51c2.29-21.35,9.21-58.55,14.53-86.55h38.44v136.2H179.12Z"/>
          </g>
        </g>
      </g>
    </g>
  </g>
</svg>
