<svg xmlns="http://www.w3.org/2000/svg" width="181.01" height="222.15" viewBox="0 0 181.01 222.15">
  <defs>
    <style>
      .cls-1 {
        isolation: isolate;
      }

      .cls-2 {
        fill: #87cdea;
      }

      .cls-3 {
        mix-blend-mode: multiply;
      }

      .cls-4 {
        fill: none;
        stroke: #00aeef;
        stroke-miterlimit: 10;
        stroke-width: 3px;
      }
    </style>
  </defs>
  <g class="cls-1">
    <g id="Layer_2" data-name="Layer 2">
      <g>
        <g>
          <path class="cls-2" d="M35.62,133.81c.84,10.43,4.62,16.81,11.86,16.81s9.65-5,9.65-12c0-9.28-3.81-13.45-14.67-18.26C22.63,111.75,16.68,99.57,16.68,81.6c0-25.87,13.06-39.2,29.74-39.2,19.71,0,29.93,15.27,30.82,39H56.47c-.64-8-2.92-14.63-10-14.63-5.4,0-8.33,4-8.33,10.88,0,8,3.54,10.26,14.2,15.13,21,9.62,26.84,22.47,26.84,42,0,24.43-11.27,40.57-32.38,40.57-19.69,0-31.29-15.91-32.18-41.51Z"/>
          <path class="cls-2" d="M153.26,131.47c0-19.92.23-47.14.58-62.36h-.74c-3,27.77-8.62,70.58-13.78,103.93H121.66c-4-31.81-9.44-75.63-12.21-103.91h-.78c.62,15,1,41.24,1,63.36V173H90.07V44.68h31.6c3.61,23.18,8.34,62.88,9.94,81.57h.4c1.83-20.12,7.35-55.19,11.6-81.57h30.68V173h-21Z"/>
        </g>
        <g class="cls-3">
          <g>
            <path class="cls-4" d="M25.62,121.81c.84,10.43,4.62,16.81,11.86,16.81s9.65-5,9.65-12c0-9.28-3.81-13.45-14.67-18.26C12.63,99.75,6.68,87.57,6.68,69.6c0-25.87,13.06-39.2,29.74-39.2,19.71,0,29.93,15.27,30.82,39H46.47c-.64-8-2.92-14.63-10-14.63-5.4,0-8.33,4-8.33,10.88,0,8,3.54,10.26,14.2,15.13,21,9.62,26.84,22.47,26.84,42,0,24.43-11.27,40.57-32.38,40.57-19.69,0-31.29-15.91-32.18-41.51Z"/>
            <path class="cls-4" d="M143.26,119.47c0-19.92.23-47.14.58-62.36h-.74c-3,27.77-8.62,70.58-13.78,103.93H111.66c-4-31.81-9.44-75.63-12.21-103.91h-.78c.62,15,1,41.24,1,63.36V161H80.07V32.68h31.6c3.61,23.18,8.34,62.88,9.94,81.57h.4c1.83-20.12,7.35-55.19,11.6-81.57h30.68V161h-21Z"/>
          </g>
        </g>
      </g>
    </g>
  </g>
</svg>
