<svg xmlns="http://www.w3.org/2000/svg" width="159.67" height="187.58" viewBox="0 0 159.67 187.58">
  <defs>
    <style>
      .cls-1 {
        isolation: isolate;
      }

      .cls-2 {
        fill: #ec008c;
      }

      .cls-3 {
        mix-blend-mode: multiply;
      }

      .cls-4 {
        fill: none;
        stroke: #00aeef;
        stroke-miterlimit: 10;
        stroke-width: 3px;
      }
    </style>
  </defs>
  <g class="cls-1">
    <g id="Layer_2" data-name="Layer 2">
      <g>
        <g>
          <path class="cls-2" d="M28.29,110.91c.76,9,4.18,14.59,10.72,14.59s8.72-4.29,8.72-10.38c0-8.06-3.44-11.68-13.25-15.85-17.92-7.5-23.3-18.07-23.3-33.67,0-22.45,11.81-34,26.87-34,17.81,0,27.05,13.26,27.85,33.87H47.14c-.59-7-2.65-12.7-9-12.7-4.88,0-7.53,3.48-7.53,9.44,0,6.9,3.2,8.91,12.83,13.13,19,8.35,24.25,19.5,24.25,36.41,0,21.2-10.18,35.2-29.26,35.2-17.79,0-28.27-13.8-29.07-36Z"/>
          <path class="cls-2" d="M134.59,108.88c0-17.29.21-40.91.53-54.11h-.67C131.74,78.86,126.66,116,122,145H106c-3.6-27.6-8.53-65.63-11-90.17H94.3c.56,13,.91,35.79.91,55V145H77.5V33.56h28.55c3.26,20.12,7.53,54.57,9,70.79h.37c1.65-17.46,6.64-47.89,10.48-70.79H153.6V145h-19Z"/>
        </g>
        <g class="cls-3">
          <g>
            <path class="cls-4" d="M23.29,105.91c.76,9,4.18,14.59,10.72,14.59s8.72-4.29,8.72-10.38c0-8.06-3.44-11.68-13.25-15.85C11.56,86.77,6.18,76.2,6.18,60.6c0-22.45,11.81-34,26.87-34,17.81,0,27.05,13.26,27.85,33.87H42.14c-.59-7-2.65-12.7-9-12.7-4.88,0-7.53,3.48-7.53,9.44,0,6.9,3.2,8.91,12.83,13.13,19,8.35,24.25,19.5,24.25,36.41,0,21.2-10.18,35.2-29.26,35.2-17.79,0-28.27-13.8-29.07-36Z"/>
            <path class="cls-4" d="M129.59,103.88c0-17.29.21-40.91.53-54.11h-.67C126.74,73.86,121.66,111,117,140H101c-3.6-27.6-8.53-65.63-11-90.17H89.3c.56,13,.91,35.79.91,55V140H72.5V28.56h28.55c3.26,20.12,7.53,54.57,9,70.79h.37c1.65-17.46,6.64-47.89,10.48-70.79H148.6V140h-19Z"/>
          </g>
        </g>
      </g>
    </g>
  </g>
</svg>
