<svg xmlns="http://www.w3.org/2000/svg" width="358.71" height="234.89" viewBox="0 0 358.71 234.89">
  <defs>
    <style>
      .cls-1 {
        isolation: isolate;
      }

      .cls-2 {
        fill: #ec008c;
      }

      .cls-3 {
        mix-blend-mode: multiply;
      }

      .cls-4 {
        fill: none;
        stroke: #00aeef;
        stroke-miterlimit: 10;
        stroke-width: 3px;
      }
    </style>
  </defs>
  <g class="cls-1">
    <g id="Layer_2" data-name="Layer 2">
      <g>
        <g>
          <path class="cls-2" d="M60.9,141.15C62.63,152.22,70.37,159,85.2,159c15,0,19.75-5.25,19.75-12.69,0-9.85-7.8-14.28-30-19.38C34.3,117.75,22.1,104.83,22.1,85.76c0-27.45,26.77-41.6,60.92-41.6,40.37,0,61.31,16.21,63.13,41.41H103.61C102.29,77.05,97.62,70,83.2,70,72.13,70,66.12,74.3,66.12,81.59c0,8.43,7.27,10.89,29.08,16,43,10.21,55,23.85,55,44.52,0,25.92-23.09,43-66.33,43-40.34,0-64.08-16.88-65.91-44Z"/>
          <path class="cls-2" d="M301.86,138.68c0-21.14.48-50,1.19-66.17h-1.51c-6.15,29.46-17.66,74.88-28.23,110.27H237.14c-8.17-33.75-19.33-80.25-25-110.25h-1.6c1.26,15.91,2.06,43.76,2.06,67.23v43H172.44V46.58h64.72c7.39,24.6,17.08,66.73,20.36,86.55h.83c3.74-21.35,15-58.55,23.76-86.55h62.83v136.2H301.86Z"/>
        </g>
        <g class="cls-3">
          <g>
            <path class="cls-4" d="M50.9,129.15C52.63,140.22,60.37,147,75.2,147,90.2,147,95,141.74,95,134.3c0-9.85-7.8-14.28-30-19.38C24.3,105.75,12.1,92.83,12.1,73.76c0-27.45,26.77-41.6,60.92-41.6,40.37,0,61.31,16.21,63.13,41.41H93.61C92.29,65.05,87.62,58,73.2,58,62.13,58,56.12,62.3,56.12,69.59c0,8.43,7.27,10.89,29.08,16,43,10.21,55,23.85,55,44.52,0,25.92-23.09,43-66.33,43-40.34,0-64.08-16.88-65.91-44Z"/>
            <path class="cls-4" d="M291.86,126.68c0-21.14.48-50,1.19-66.17h-1.51c-6.15,29.46-17.66,74.88-28.23,110.27H227.14C219,137,207.81,90.53,202.13,60.53h-1.6c1.26,15.91,2.06,43.76,2.06,67.23v43H162.44V34.58h64.72c7.39,24.6,17.08,66.73,20.36,86.55h.83c3.74-21.35,15-58.55,23.76-86.55h62.83v136.2H291.86Z"/>
          </g>
        </g>
      </g>
    </g>
  </g>
</svg>
